<svg xmlns="http://www.w3.org/2000/svg" width="52.5" height="60" viewBox="0 0 52.5 60">
  <g id="anp" transform="translate(-4)">
    <g id="Grupo_5" data-name="Grupo 5" transform="translate(4 0)">
      <path id="Trazado_2" data-name="Trazado 2" d="M41.438,22.75V19.938A.938.938,0,0,0,40.5,19H37.688A4.693,4.693,0,0,0,33,23.688V26.5a.938.938,0,0,0,.938.938H36.75A4.693,4.693,0,0,0,41.438,22.75Zm-6.562.938a2.816,2.816,0,0,1,2.813-2.812h1.875V22.75a2.816,2.816,0,0,1-2.812,2.813H34.875Z" transform="translate(-5.813 -1.188)" fill="#000a2b"/>
      <path id="Trazado_3" data-name="Trazado 3" d="M30.438,28.37v4.692h1.875V27.813a.938.938,0,0,0-.488-.823l-1.387-.757V23.688A4.693,4.693,0,0,0,25.75,19H22.938a.938.938,0,0,0-.937.938V22.75a4.693,4.693,0,0,0,4.688,4.688H28.9l-.039.073Zm-1.875-2.808H26.688a2.816,2.816,0,0,1-2.812-2.812V20.875H25.75a2.816,2.816,0,0,1,2.813,2.813Z" transform="translate(-5.125 -1.188)" fill="#000a2b"/>
      <path id="Trazado_4" data-name="Trazado 4" d="M41.112,6.315A.94.94,0,0,1,40.3,6.22L30.753.146a.94.94,0,0,0-1.007,0L20.2,6.22a.919.919,0,0,1-.729.128L7.742.925A2.813,2.813,0,0,0,4,3.58V35.354a14.02,14.02,0,0,0,7.236,12.291l18.5,12.2a.94.94,0,0,0,1.033,0L49.2,47.684a14.06,14.06,0,0,0,7.3-12.33V3.58a2.82,2.82,0,0,0-1.185-2.294,2.85,2.85,0,0,0-2.64-.327Zm13.118-3.5a.929.929,0,0,1,.395.765V35.354a12.223,12.223,0,0,1-6.393,10.725L30.25,57.939,12.2,46.04A12.183,12.183,0,0,1,5.875,35.354V3.58a.928.928,0,0,1,.395-.764,1,1,0,0,1,.563-.185.67.67,0,0,1,.205.03L18.77,8.085A2.8,2.8,0,0,0,21.21,7.8l9.04-5.753L39.291,7.8a2.832,2.832,0,0,0,2.524.248L53.378,2.7a.93.93,0,0,1,.852.12Z" transform="translate(-4 0)" fill="#000a2b"/>
      <path id="Trazado_5" data-name="Trazado 5" d="M38.535,9.681,31,4.888a.94.94,0,0,0-1.007,0L22.466,9.681a4.725,4.725,0,0,1-4.014.488l-9.1-4.49A.938.938,0,0,0,8,6.52V35.65a10.269,10.269,0,0,0,5.282,9l16.7,11.212a.938.938,0,0,0,1.046,0L47.646,44.694A10.313,10.313,0,0,0,53,35.65V19.984H51.125v11.25H33.313v1.875H51.125V35.65a8.481,8.481,0,0,1-4.453,7.442L30.5,53.953l-16.244-10.9a8.439,8.439,0,0,1-4.381-7.4V33.109H27.688V31.234H9.875V8.027l7.8,3.849a.87.87,0,0,0,.106.044,6.619,6.619,0,0,0,5.692-.658L30.5,6.79l7.028,4.473a6.62,6.62,0,0,0,5.689.659,1.05,1.05,0,0,0,.106-.044l7.8-3.851v6.332H53V6.519a.938.938,0,0,0-1.352-.841l-9.1,4.491A4.73,4.73,0,0,1,38.535,9.681Z" transform="translate(-4.25 -0.296)" fill="#000a2b"/>
      <path id="Trazado_6" data-name="Trazado 6" d="M54,17h1.875v1.875H54Z" transform="translate(-7.125 -1.063)" fill="#000a2b"/>
      <path id="Trazado_7" data-name="Trazado 7" d="M19,38h1.875v1.875H19Z" transform="translate(-4.938 -2.375)" fill="#000a2b"/>
      <path id="Trazado_8" data-name="Trazado 8" d="M26,38h5.625v1.875H26Z" transform="translate(-5.375 -2.375)" fill="#000a2b"/>
      <path id="Trazado_9" data-name="Trazado 9" d="M38,38h1.875v1.875H38Z" transform="translate(-6.125 -2.375)" fill="#000a2b"/>
      <path id="Trazado_10" data-name="Trazado 10" d="M23,43h1.875v1.875H23Z" transform="translate(-5.188 -2.688)" fill="#000a2b"/>
      <path id="Trazado_11" data-name="Trazado 11" d="M29,43h4.688v1.875H29Z" transform="translate(-5.563 -2.688)" fill="#000a2b"/>
      <path id="Trazado_12" data-name="Trazado 12" d="M39,43h1.875v1.875H39Z" transform="translate(-6.188 -2.688)" fill="#000a2b"/>
      <path id="Trazado_13" data-name="Trazado 13" d="M26,48h3.75v1.875H26Z" transform="translate(-5.375 -3)" fill="#000a2b"/>
      <path id="Trazado_14" data-name="Trazado 14" d="M33,48h1.875v1.875H33Z" transform="translate(-5.813 -3)" fill="#000a2b"/>
      <path id="Trazado_15" data-name="Trazado 15" d="M44,38h2.813v1.875H44Z" transform="translate(-6.5 -2.375)" fill="#000a2b"/>
      <path id="Trazado_16" data-name="Trazado 16" d="M13,38h1.875v1.875H13Z" transform="translate(-4.563 -2.375)" fill="#000a2b"/>
    </g>
  </g>
</svg>
