<svg xmlns="http://www.w3.org/2000/svg" width="78.416" height="60" viewBox="0 0 78.416 60">
  <g id="comunidad" transform="translate(0 -60.121)">
    <path id="Trazado_17" data-name="Trazado 17" d="M76.2,81.315,45.029,61.278a7.272,7.272,0,0,0-3.941-1.157H37.328a7.272,7.272,0,0,0-3.941,1.157L31.6,62.43a1.149,1.149,0,1,0,1.242,1.933l1.791-1.151a4.98,4.98,0,0,1,2.7-.792h3.761a4.98,4.98,0,0,1,2.7.792L74.954,83.248a2.524,2.524,0,0,1,1.164,2.132V86.5a.739.739,0,0,1-1.214.569A4.465,4.465,0,0,0,71.822,85.9a4.759,4.759,0,0,0-3.492,1.523,2.511,2.511,0,0,1-3.9,0,4.756,4.756,0,0,0-6.978,0,2.5,2.5,0,0,1-3.9,0,4.754,4.754,0,0,0-6.977,0,2.5,2.5,0,0,1-3.9,0,4.755,4.755,0,0,0-6.977,0,2.5,2.5,0,0,1-3.9,0,4.751,4.751,0,0,0-6.974,0,2.5,2.5,0,0,1-3.894,0,4.75,4.75,0,0,0-6.973,0,2.5,2.5,0,0,1-3.891,0A4.748,4.748,0,0,0,6.585,85.9a4.45,4.45,0,0,0-3.073,1.158A.74.74,0,0,1,2.3,86.493v-.939a2.624,2.624,0,0,1,1.164-2.307l25.046-16.1a1.149,1.149,0,0,0-1.242-1.933L2.219,81.315A4.913,4.913,0,0,0,0,85.554v.939a3.01,3.01,0,0,0,1.757,2.755,3.007,3.007,0,0,0,3.236-.431,2.279,2.279,0,0,1,1.146-.581v29.587H3.6a1.149,1.149,0,1,0,0,2.3H74.812a1.149,1.149,0,0,0,0-2.3H72.277V88.236a2.267,2.267,0,0,1,1.147.586A3.037,3.037,0,0,0,78.416,86.5V85.379A4.812,4.812,0,0,0,76.2,81.315ZM45.426,117.824H42.812v-9.98h2.614Zm-4.911,0H37.9v-9.98h2.613Zm-4.911,0H32.99v-9.98H35.6ZM8.436,89.045l.1.086a4.749,4.749,0,0,0,6.972,0,2.5,2.5,0,0,1,3.892,0,4.751,4.751,0,0,0,6.974,0,2.5,2.5,0,0,1,3.893,0c.136.123.278.25.429.378v28.314H8.436Zm39.287,28.778V103.012a1.149,1.149,0,0,0-2.3,0v2.534H42.812V104.24a1.149,1.149,0,0,0-2.3,0v1.307H37.9V104.24a1.149,1.149,0,0,0-2.3,0v1.307H32.99V90.6a5.081,5.081,0,0,0,.761.057,4.752,4.752,0,0,0,3.489-1.524,2.5,2.5,0,0,1,3.9,0,4.752,4.752,0,0,0,3.489,1.524,5.081,5.081,0,0,0,.8-.063V98.1a1.149,1.149,0,0,0,2.3,0V89.478c.137-.117.267-.234.392-.346a2.5,2.5,0,0,1,3.9,0,4.754,4.754,0,0,0,6.976,0,2.506,2.506,0,0,1,3.9,0,4.761,4.761,0,0,0,6.982,0l.111-.1v28.791Z" transform="translate(0 0)" fill="#000a2b"/>
  </g>
</svg>
