<svg xmlns="http://www.w3.org/2000/svg" width="64.009" height="60" viewBox="0 0 64.009 60">
  <path id="reserva" d="M63.071,58.125h-1.5L47.548,37.094a2.942,2.942,0,0,0-4.235-.706l-8.572-18.7a2.907,2.907,0,0,0-1.8-1.586V8.89h8.082a.938.938,0,0,0,.78-1.458L40.146,4.946,41.8,2.46A.938.938,0,0,0,41.024,1H32.942V.938a.938.938,0,1,0-1.875,0v15.2a2.9,2.9,0,0,0-1.7,1.611l-3.225,7.524-1.6-1.263a1.94,1.94,0,0,0-2.937.66L10.612,46.756,8.9,47.826a6.962,6.962,0,0,0-2.467,2.647L2.377,58.125H.938A.938.938,0,1,0,.938,60H63.071a.938.938,0,0,0,0-1.875ZM39.272,2.877,38.239,4.426a.938.938,0,0,0,0,1.04l1.033,1.549h-6.33V2.877Zm-16,22.631a.059.059,0,0,1,.043-.034.058.058,0,0,1,.054.012l2,1.574-.288.672a.938.938,0,0,0,1.724.739l4.277-9.982a1.067,1.067,0,0,1,1.95-.024l6.29,13.723L38.31,33.2a.992.992,0,0,1-1.474-.079,2.868,2.868,0,0,0-4.879.694L30.4,37.548a.992.992,0,0,1-1.719.2L25.008,32.67l.277-.646a.938.938,0,0,0-1.724-.739l-3.577,8.347A6.049,6.049,0,0,1,17.613,42.4L13.65,44.864ZM8.086,51.351a5.08,5.08,0,0,1,1.8-1.933L18.6,43.987a7.92,7.92,0,0,0,3.1-3.617l2.439-5.691,3.013,4.167a2.83,2.83,0,0,0,2.311,1.188,3,3,0,0,0,.342-.02A2.833,2.833,0,0,0,32.13,38.27l1.557-3.728a.993.993,0,0,1,1.688-.24,2.867,2.867,0,0,0,4.26.228l.523-.523L42.033,38.1l-.52.844a.938.938,0,0,0,1.6.983l1.081-1.757a1.067,1.067,0,0,1,1.8-.032L59.315,58.125H18.5l3.262-2.8a12.045,12.045,0,0,1,3.8-2.206l9.44-3.372a7.983,7.983,0,0,0,4.1-3.321l1.888-3.068a.937.937,0,1,0-1.6-.983l-1.888,3.068a6.1,6.1,0,0,1-3.132,2.538l-9.44,3.372A13.9,13.9,0,0,0,20.546,53.9l-4.923,4.22H4.5Zm0,0" fill="#000a2b"/>
</svg>
